<svg width="115" height="381" viewBox="0 0 115 381" fill="none" xmlns="http://www.w3.org/2000/svg">
<ellipse opacity="0.0169492" cx="175.37" cy="197" rx="24.8455" ry="204.975" transform="rotate(140 175.37 197)" stroke="url(#paint0_linear_214_123)" stroke-opacity="0.8" stroke-width="2"/>
<ellipse opacity="0.0338983" cx="175.37" cy="197" rx="24.8455" ry="201.869" transform="rotate(150 175.37 197)" stroke="url(#paint1_linear_214_123)" stroke-opacity="0.8" stroke-width="2"/>
<ellipse opacity="0.0508475" cx="175.37" cy="197" rx="24.8455" ry="198.764" transform="rotate(160 175.37 197)" stroke="url(#paint2_linear_214_123)" stroke-opacity="0.8" stroke-width="2"/>
<ellipse opacity="0.118644" cx="175.371" cy="197" rx="24.8455" ry="186.341" transform="rotate(-160 175.371 197)" stroke="url(#paint3_linear_214_123)" stroke-opacity="0.8" stroke-width="2"/>
<ellipse opacity="0.135593" cx="175.369" cy="197" rx="24.8455" ry="183.235" transform="rotate(-150 175.369 197)" stroke="url(#paint4_linear_214_123)" stroke-opacity="0.8" stroke-width="2"/>
<ellipse opacity="0.152542" cx="175.37" cy="197" rx="24.8455" ry="180.13" transform="rotate(-140 175.37 197)" stroke="url(#paint5_linear_214_123)" stroke-opacity="0.8" stroke-width="2"/>
<ellipse opacity="0.169492" cx="175.37" cy="197" rx="24.8455" ry="177.024" transform="rotate(-130 175.37 197)" stroke="url(#paint6_linear_214_123)" stroke-opacity="0.8" stroke-width="2"/>
<ellipse opacity="0.186441" cx="175.369" cy="197" rx="24.8455" ry="173.918" transform="rotate(-120 175.369 197)" stroke="url(#paint7_linear_214_123)" stroke-opacity="0.8" stroke-width="2"/>
<ellipse opacity="0.20339" cx="175.37" cy="197" rx="24.8455" ry="170.813" transform="rotate(-110 175.37 197)" stroke="url(#paint8_linear_214_123)" stroke-opacity="0.8" stroke-width="2"/>
<ellipse opacity="0.220339" cx="175.369" cy="197" rx="24.8455" ry="167.707" transform="rotate(-100 175.369 197)" stroke="url(#paint9_linear_214_123)" stroke-opacity="0.8" stroke-width="2"/>
<ellipse opacity="0.237288" cx="175.37" cy="197" rx="24.8455" ry="164.601" transform="rotate(-90 175.37 197)" stroke="url(#paint10_linear_214_123)" stroke-opacity="0.8" stroke-width="2"/>
<ellipse opacity="0.254237" cx="175.369" cy="197" rx="24.8455" ry="161.496" transform="rotate(-80 175.369 197)" stroke="url(#paint11_linear_214_123)" stroke-opacity="0.8" stroke-width="2"/>
<ellipse opacity="0.271186" cx="175.37" cy="197" rx="24.8455" ry="158.39" transform="rotate(-70 175.37 197)" stroke="url(#paint12_linear_214_123)" stroke-opacity="0.8" stroke-width="2"/>
<ellipse opacity="0.288136" cx="175.37" cy="197" rx="24.8455" ry="155.284" transform="rotate(-60 175.37 197)" stroke="url(#paint13_linear_214_123)" stroke-opacity="0.8" stroke-width="2"/>
<ellipse opacity="0.305085" cx="175.37" cy="196.999" rx="24.8455" ry="152.179" transform="rotate(-50 175.37 196.999)" stroke="url(#paint14_linear_214_123)" stroke-opacity="0.8" stroke-width="2"/>
<ellipse opacity="0.322034" cx="175.37" cy="197" rx="24.8455" ry="149.073" transform="rotate(-40 175.37 197)" stroke="url(#paint15_linear_214_123)" stroke-opacity="0.8" stroke-width="2"/>
<ellipse opacity="0.338983" cx="175.37" cy="197" rx="24.8455" ry="145.967" transform="rotate(-30 175.37 197)" stroke="url(#paint16_linear_214_123)" stroke-opacity="0.8" stroke-width="2"/>
<ellipse opacity="0.355932" cx="175.37" cy="197" rx="24.8455" ry="142.861" transform="rotate(-20 175.37 197)" stroke="url(#paint17_linear_214_123)" stroke-opacity="0.8" stroke-width="2"/>
<ellipse opacity="0.423729" cx="175.37" cy="197" rx="24.8455" ry="130.439" transform="rotate(20 175.37 197)" stroke="url(#paint18_linear_214_123)" stroke-opacity="0.8" stroke-width="2"/>
<ellipse opacity="0.440678" cx="175.37" cy="197" rx="24.8455" ry="127.333" transform="rotate(30 175.37 197)" stroke="url(#paint19_linear_214_123)" stroke-opacity="0.8" stroke-width="2"/>
<ellipse opacity="0.457627" cx="175.37" cy="197" rx="24.8455" ry="124.227" transform="rotate(40 175.37 197)" stroke="url(#paint20_linear_214_123)" stroke-opacity="0.8" stroke-width="2"/>
<ellipse opacity="0.474576" cx="175.37" cy="197" rx="24.8455" ry="121.122" transform="rotate(50 175.37 197)" stroke="url(#paint21_linear_214_123)" stroke-opacity="0.8" stroke-width="2"/>
<ellipse opacity="0.491525" cx="175.37" cy="197" rx="24.8455" ry="118.016" transform="rotate(60 175.37 197)" stroke="url(#paint22_linear_214_123)" stroke-opacity="0.8" stroke-width="2"/>
<ellipse opacity="0.508475" cx="175.37" cy="197" rx="24.8455" ry="114.91" transform="rotate(70 175.37 197)" stroke="url(#paint23_linear_214_123)" stroke-opacity="0.8" stroke-width="2"/>
<ellipse opacity="0.525424" cx="175.37" cy="197" rx="24.8455" ry="111.805" transform="rotate(80 175.37 197)" stroke="url(#paint24_linear_214_123)" stroke-opacity="0.8" stroke-width="2"/>
<ellipse opacity="0.542373" cx="175.37" cy="197" rx="24.8455" ry="108.699" transform="rotate(90 175.37 197)" stroke="url(#paint25_linear_214_123)" stroke-opacity="0.8" stroke-width="2"/>
<ellipse opacity="0.559322" cx="175.37" cy="197" rx="24.8455" ry="105.593" transform="rotate(100 175.37 197)" stroke="url(#paint26_linear_214_123)" stroke-opacity="0.8" stroke-width="2"/>
<ellipse opacity="0.576271" cx="175.369" cy="197" rx="24.8455" ry="102.488" transform="rotate(110 175.369 197)" stroke="url(#paint27_linear_214_123)" stroke-opacity="0.8" stroke-width="2"/>
<ellipse opacity="0.59322" cx="175.369" cy="197" rx="24.8455" ry="99.3819" transform="rotate(120 175.369 197)" stroke="url(#paint28_linear_214_123)" stroke-opacity="0.8" stroke-width="2"/>
<ellipse opacity="0.610169" cx="175.37" cy="197" rx="24.8455" ry="96.2762" transform="rotate(130 175.37 197)" stroke="url(#paint29_linear_214_123)" stroke-opacity="0.8" stroke-width="2"/>
<ellipse opacity="0.627119" cx="175.37" cy="197" rx="24.8455" ry="93.1705" transform="rotate(140 175.37 197)" stroke="url(#paint30_linear_214_123)" stroke-opacity="0.8" stroke-width="2"/>
<ellipse opacity="0.644068" cx="175.371" cy="197" rx="24.8455" ry="90.0648" transform="rotate(150 175.371 197)" stroke="url(#paint31_linear_214_123)" stroke-opacity="0.8" stroke-width="2"/>
<ellipse opacity="0.762712" cx="175.37" cy="197" rx="24.8455" ry="68.3251" transform="rotate(-140 175.37 197)" stroke="url(#paint32_linear_214_123)" stroke-opacity="0.8" stroke-width="2"/>
<ellipse opacity="0.779661" cx="175.369" cy="197" rx="24.8455" ry="65.2194" transform="rotate(-130 175.369 197)" stroke="url(#paint33_linear_214_123)" stroke-opacity="0.8" stroke-width="2"/>
<ellipse opacity="0.79661" cx="175.37" cy="197" rx="24.8455" ry="62.1137" transform="rotate(-120 175.37 197)" stroke="url(#paint34_linear_214_123)" stroke-opacity="0.8" stroke-width="2"/>
<ellipse opacity="0.813559" cx="175.37" cy="197" rx="24.8455" ry="59.008" transform="rotate(-110 175.37 197)" stroke="url(#paint35_linear_214_123)" stroke-opacity="0.8" stroke-width="2"/>
<ellipse opacity="0.830508" cx="175.37" cy="197" rx="24.8455" ry="55.9023" transform="rotate(-100 175.37 197)" stroke="url(#paint36_linear_214_123)" stroke-opacity="0.8" stroke-width="2"/>
<defs>
<linearGradient id="paint0_linear_214_123" x1="175.37" y1="-7.97531" x2="175.37" y2="417.348" gradientUnits="userSpaceOnUse">
<stop stop-color="#868686"/>
<stop offset="1" stop-color="white" stop-opacity="0"/>
</linearGradient>
<linearGradient id="paint1_linear_214_123" x1="175.37" y1="-4.86946" x2="175.37" y2="414.01" gradientUnits="userSpaceOnUse">
<stop stop-color="#868686"/>
<stop offset="1" stop-color="white" stop-opacity="0"/>
</linearGradient>
<linearGradient id="paint2_linear_214_123" x1="175.37" y1="-1.76408" x2="175.37" y2="410.671" gradientUnits="userSpaceOnUse">
<stop stop-color="#868686"/>
<stop offset="1" stop-color="white" stop-opacity="0"/>
</linearGradient>
<linearGradient id="paint3_linear_214_123" x1="175.371" y1="10.6588" x2="175.371" y2="397.316" gradientUnits="userSpaceOnUse">
<stop stop-color="#868686"/>
<stop offset="1" stop-color="white" stop-opacity="0"/>
</linearGradient>
<linearGradient id="paint4_linear_214_123" x1="175.369" y1="13.7644" x2="175.369" y2="393.978" gradientUnits="userSpaceOnUse">
<stop stop-color="#868686"/>
<stop offset="1" stop-color="white" stop-opacity="0"/>
</linearGradient>
<linearGradient id="paint5_linear_214_123" x1="175.37" y1="16.8701" x2="175.37" y2="390.639" gradientUnits="userSpaceOnUse">
<stop stop-color="#868686"/>
<stop offset="1" stop-color="white" stop-opacity="0"/>
</linearGradient>
<linearGradient id="paint6_linear_214_123" x1="175.37" y1="19.9757" x2="175.37" y2="387.301" gradientUnits="userSpaceOnUse">
<stop stop-color="#868686"/>
<stop offset="1" stop-color="white" stop-opacity="0"/>
</linearGradient>
<linearGradient id="paint7_linear_214_123" x1="175.369" y1="23.0814" x2="175.369" y2="383.962" gradientUnits="userSpaceOnUse">
<stop stop-color="#868686"/>
<stop offset="1" stop-color="white" stop-opacity="0"/>
</linearGradient>
<linearGradient id="paint8_linear_214_123" x1="175.37" y1="26.1871" x2="175.37" y2="380.623" gradientUnits="userSpaceOnUse">
<stop stop-color="#868686"/>
<stop offset="1" stop-color="white" stop-opacity="0"/>
</linearGradient>
<linearGradient id="paint9_linear_214_123" x1="175.369" y1="29.2929" x2="175.369" y2="377.285" gradientUnits="userSpaceOnUse">
<stop stop-color="#868686"/>
<stop offset="1" stop-color="white" stop-opacity="0"/>
</linearGradient>
<linearGradient id="paint10_linear_214_123" x1="175.37" y1="32.3986" x2="175.37" y2="373.946" gradientUnits="userSpaceOnUse">
<stop stop-color="#868686"/>
<stop offset="1" stop-color="white" stop-opacity="0"/>
</linearGradient>
<linearGradient id="paint11_linear_214_123" x1="175.369" y1="35.5041" x2="175.369" y2="370.608" gradientUnits="userSpaceOnUse">
<stop stop-color="#868686"/>
<stop offset="1" stop-color="white" stop-opacity="0"/>
</linearGradient>
<linearGradient id="paint12_linear_214_123" x1="175.37" y1="38.6097" x2="175.37" y2="367.269" gradientUnits="userSpaceOnUse">
<stop stop-color="#868686"/>
<stop offset="1" stop-color="white" stop-opacity="0"/>
</linearGradient>
<linearGradient id="paint13_linear_214_123" x1="175.37" y1="41.7155" x2="175.37" y2="363.93" gradientUnits="userSpaceOnUse">
<stop stop-color="#868686"/>
<stop offset="1" stop-color="white" stop-opacity="0"/>
</linearGradient>
<linearGradient id="paint14_linear_214_123" x1="175.37" y1="44.821" x2="175.37" y2="360.591" gradientUnits="userSpaceOnUse">
<stop stop-color="#868686"/>
<stop offset="1" stop-color="white" stop-opacity="0"/>
</linearGradient>
<linearGradient id="paint15_linear_214_123" x1="175.37" y1="47.9268" x2="175.37" y2="357.253" gradientUnits="userSpaceOnUse">
<stop stop-color="#868686"/>
<stop offset="1" stop-color="white" stop-opacity="0"/>
</linearGradient>
<linearGradient id="paint16_linear_214_123" x1="175.37" y1="51.0327" x2="175.37" y2="353.915" gradientUnits="userSpaceOnUse">
<stop stop-color="#868686"/>
<stop offset="1" stop-color="white" stop-opacity="0"/>
</linearGradient>
<linearGradient id="paint17_linear_214_123" x1="175.37" y1="54.1385" x2="175.37" y2="350.576" gradientUnits="userSpaceOnUse">
<stop stop-color="#868686"/>
<stop offset="1" stop-color="white" stop-opacity="0"/>
</linearGradient>
<linearGradient id="paint18_linear_214_123" x1="175.37" y1="66.561" x2="175.37" y2="337.221" gradientUnits="userSpaceOnUse">
<stop stop-color="#868686"/>
<stop offset="1" stop-color="white" stop-opacity="0"/>
</linearGradient>
<linearGradient id="paint19_linear_214_123" x1="175.37" y1="69.6667" x2="175.37" y2="333.883" gradientUnits="userSpaceOnUse">
<stop stop-color="#868686"/>
<stop offset="1" stop-color="white" stop-opacity="0"/>
</linearGradient>
<linearGradient id="paint20_linear_214_123" x1="175.37" y1="72.7725" x2="175.37" y2="330.544" gradientUnits="userSpaceOnUse">
<stop stop-color="#868686"/>
<stop offset="1" stop-color="white" stop-opacity="0"/>
</linearGradient>
<linearGradient id="paint21_linear_214_123" x1="175.37" y1="75.8784" x2="175.37" y2="327.206" gradientUnits="userSpaceOnUse">
<stop stop-color="#868686"/>
<stop offset="1" stop-color="white" stop-opacity="0"/>
</linearGradient>
<linearGradient id="paint22_linear_214_123" x1="175.37" y1="78.9837" x2="175.37" y2="323.867" gradientUnits="userSpaceOnUse">
<stop stop-color="#868686"/>
<stop offset="1" stop-color="white" stop-opacity="0"/>
</linearGradient>
<linearGradient id="paint23_linear_214_123" x1="175.37" y1="82.0899" x2="175.37" y2="320.529" gradientUnits="userSpaceOnUse">
<stop stop-color="#868686"/>
<stop offset="1" stop-color="white" stop-opacity="0"/>
</linearGradient>
<linearGradient id="paint24_linear_214_123" x1="175.37" y1="85.1952" x2="175.37" y2="317.19" gradientUnits="userSpaceOnUse">
<stop stop-color="#868686"/>
<stop offset="1" stop-color="white" stop-opacity="0"/>
</linearGradient>
<linearGradient id="paint25_linear_214_123" x1="175.37" y1="88.3012" x2="175.37" y2="313.852" gradientUnits="userSpaceOnUse">
<stop stop-color="#868686"/>
<stop offset="1" stop-color="white" stop-opacity="0"/>
</linearGradient>
<linearGradient id="paint26_linear_214_123" x1="175.37" y1="91.407" x2="175.37" y2="310.513" gradientUnits="userSpaceOnUse">
<stop stop-color="#868686"/>
<stop offset="1" stop-color="white" stop-opacity="0"/>
</linearGradient>
<linearGradient id="paint27_linear_214_123" x1="175.369" y1="94.5125" x2="175.369" y2="307.174" gradientUnits="userSpaceOnUse">
<stop stop-color="#868686"/>
<stop offset="1" stop-color="white" stop-opacity="0"/>
</linearGradient>
<linearGradient id="paint28_linear_214_123" x1="175.369" y1="97.618" x2="175.369" y2="303.835" gradientUnits="userSpaceOnUse">
<stop stop-color="#868686"/>
<stop offset="1" stop-color="white" stop-opacity="0"/>
</linearGradient>
<linearGradient id="paint29_linear_214_123" x1="175.37" y1="100.724" x2="175.37" y2="300.497" gradientUnits="userSpaceOnUse">
<stop stop-color="#868686"/>
<stop offset="1" stop-color="white" stop-opacity="0"/>
</linearGradient>
<linearGradient id="paint30_linear_214_123" x1="175.37" y1="103.829" x2="175.37" y2="297.158" gradientUnits="userSpaceOnUse">
<stop stop-color="#868686"/>
<stop offset="1" stop-color="white" stop-opacity="0"/>
</linearGradient>
<linearGradient id="paint31_linear_214_123" x1="175.371" y1="106.935" x2="175.371" y2="293.82" gradientUnits="userSpaceOnUse">
<stop stop-color="#868686"/>
<stop offset="1" stop-color="white" stop-opacity="0"/>
</linearGradient>
<linearGradient id="paint32_linear_214_123" x1="175.37" y1="128.675" x2="175.37" y2="270.449" gradientUnits="userSpaceOnUse">
<stop stop-color="#868686"/>
<stop offset="1" stop-color="white" stop-opacity="0"/>
</linearGradient>
<linearGradient id="paint33_linear_214_123" x1="175.369" y1="131.781" x2="175.369" y2="267.111" gradientUnits="userSpaceOnUse">
<stop stop-color="#868686"/>
<stop offset="1" stop-color="white" stop-opacity="0"/>
</linearGradient>
<linearGradient id="paint34_linear_214_123" x1="175.37" y1="134.886" x2="175.37" y2="263.772" gradientUnits="userSpaceOnUse">
<stop stop-color="#868686"/>
<stop offset="1" stop-color="white" stop-opacity="0"/>
</linearGradient>
<linearGradient id="paint35_linear_214_123" x1="175.37" y1="137.992" x2="175.37" y2="260.433" gradientUnits="userSpaceOnUse">
<stop stop-color="#868686"/>
<stop offset="1" stop-color="white" stop-opacity="0"/>
</linearGradient>
<linearGradient id="paint36_linear_214_123" x1="175.37" y1="141.097" x2="175.37" y2="257.095" gradientUnits="userSpaceOnUse">
<stop stop-color="#868686"/>
<stop offset="1" stop-color="white" stop-opacity="0"/>
</linearGradient>
</defs>
</svg>
