<svg width="99" height="17" viewBox="0 0 99 17" fill="none" xmlns="http://www.w3.org/2000/svg">
<path fill-rule="evenodd" clip-rule="evenodd" d="M13.0187 3.01801L19.654 10.5088L23.9964 10.5045L23.9997 13.9487L18.1757 13.9546L11.5391 6.46223H6.49582C5.90705 7.56444 4.76736 8.31338 3.4606 8.31338C1.55247 8.31338 0 6.71687 0 4.75447C0 2.79207 1.55241 1.1955 3.4606 1.19556C4.75586 1.19556 5.88651 1.93159 6.47969 3.01801H13.0187ZM2.23278 4.75447C2.23278 5.45083 2.78359 6.01724 3.46066 6.01724C4.13768 6.01724 4.68854 5.45078 4.68854 4.75447C4.68854 4.05822 4.13773 3.4917 3.46066 3.4917C2.78359 3.4917 2.23278 4.05822 2.23278 4.75447ZM17.7942 3.80759L16.5595 5.32304L18.8357 7.89243L19.3582 7.25181H24V3.80759H17.7942ZM12.325 10.5234H10.3382C9.74718 9.42903 8.61206 8.68657 7.31106 8.68657C5.40286 8.68657 3.85045 10.2831 3.85045 12.2455C3.85045 14.2079 5.40292 15.8044 7.31106 15.8044C8.61212 15.8044 9.74723 15.0618 10.3382 13.9676H13.8885L15.2196 12.333L12.9437 9.76364L12.325 10.5234ZM7.311 13.5083C6.63393 13.5083 6.08312 12.9417 6.08312 12.2455C6.08312 11.5491 6.63393 10.9827 7.311 10.9827C7.98807 10.9827 8.53889 11.5491 8.53889 12.2455C8.53889 12.9417 7.98807 13.5083 7.311 13.5083Z" fill="url(#paint0_linear_214_110)"/>
<path d="M41.8478 3.92L37.7598 14H36.2828L32.1948 3.92H33.5038C33.6485 3.92 33.7652 3.95733 33.8538 4.032C33.9425 4.102 34.0102 4.19067 34.0568 4.298L36.6538 10.871C36.7938 11.2397 36.9222 11.6643 37.0388 12.145C37.0902 11.907 37.1438 11.6807 37.1998 11.466C37.2605 11.2513 37.3258 11.053 37.3958 10.871L39.9858 4.298C40.0232 4.20467 40.0885 4.11833 40.1818 4.039C40.2752 3.95967 40.3918 3.92 40.5318 3.92H41.8478ZM45.5064 10.878C44.9697 10.8967 44.5171 10.941 44.1484 11.011C43.7797 11.0763 43.4811 11.1627 43.2524 11.27C43.0237 11.3727 42.8581 11.4963 42.7554 11.641C42.6574 11.7857 42.6084 11.9443 42.6084 12.117C42.6084 12.285 42.6341 12.4297 42.6854 12.551C42.7414 12.6677 42.8161 12.7657 42.9094 12.845C43.0074 12.9197 43.1194 12.9757 43.2454 13.013C43.3761 13.0457 43.5184 13.062 43.6724 13.062C44.0644 13.062 44.4004 12.9897 44.6804 12.845C44.9651 12.6957 45.2404 12.481 45.5064 12.201V10.878ZM41.5164 7.854C42.3237 7.10267 43.2851 6.727 44.4004 6.727C44.8111 6.727 45.1751 6.79467 45.4924 6.93C45.8144 7.06067 46.0827 7.24733 46.2974 7.49C46.5167 7.73267 46.6824 8.022 46.7944 8.358C46.9111 8.68933 46.9694 9.058 46.9694 9.464V14H46.2974C46.1527 14 46.0431 13.979 45.9684 13.937C45.8937 13.8903 45.8307 13.7993 45.7794 13.664L45.6324 13.083C45.4504 13.2463 45.2707 13.3933 45.0934 13.524C44.9161 13.65 44.7317 13.7573 44.5404 13.846C44.3537 13.9347 44.1507 14 43.9314 14.042C43.7167 14.0887 43.4787 14.112 43.2174 14.112C42.9281 14.112 42.6574 14.0723 42.4054 13.993C42.1581 13.9137 41.9434 13.7947 41.7614 13.636C41.5794 13.4727 41.4347 13.272 41.3274 13.034C41.2247 12.796 41.1734 12.516 41.1734 12.194C41.1734 11.9187 41.2457 11.6503 41.3904 11.389C41.5397 11.1277 41.7824 10.8943 42.1184 10.689C42.4591 10.479 42.9047 10.3063 43.4554 10.171C44.0107 10.0357 44.6944 9.95867 45.5064 9.94V9.464C45.5064 8.95067 45.3967 8.568 45.1774 8.316C44.9581 8.064 44.6361 7.938 44.2114 7.938C43.9221 7.938 43.6794 7.97533 43.4834 8.05C43.2874 8.12 43.1171 8.197 42.9724 8.281C42.8277 8.365 42.6994 8.44433 42.5874 8.519C42.4754 8.589 42.3564 8.624 42.2304 8.624C42.1277 8.624 42.0391 8.59833 41.9644 8.547C41.8944 8.491 41.8361 8.42333 41.7894 8.344L41.5164 7.854ZM53.2894 8.617C53.0794 8.34633 52.8484 8.15733 52.5964 8.05C52.3444 7.94267 52.0714 7.889 51.7774 7.889C51.1894 7.889 50.7298 8.106 50.3984 8.54C50.0671 8.96933 49.9014 9.60633 49.9014 10.451C49.9014 10.8897 49.9388 11.2653 50.0134 11.578C50.0881 11.886 50.1954 12.138 50.3354 12.334C50.4754 12.53 50.6458 12.6723 50.8464 12.761C51.0471 12.8497 51.2734 12.894 51.5254 12.894C51.9081 12.894 52.2371 12.8123 52.5124 12.649C52.7924 12.481 53.0514 12.2453 53.2894 11.942V8.617ZM54.7944 3.64V14H53.8844C53.6838 14 53.5554 13.9043 53.4994 13.713L53.3664 12.936C53.0678 13.286 52.7271 13.5683 52.3444 13.783C51.9664 13.9977 51.5254 14.105 51.0214 14.105C50.6201 14.105 50.2561 14.0257 49.9294 13.867C49.6028 13.7037 49.3228 13.468 49.0894 13.16C48.8561 12.852 48.6741 12.4717 48.5434 12.019C48.4174 11.5617 48.3544 11.039 48.3544 10.451C48.3544 9.919 48.4244 9.42667 48.5644 8.974C48.7091 8.52133 48.9144 8.12933 49.1804 7.798C49.4464 7.462 49.7684 7.20067 50.1464 7.014C50.5291 6.82267 50.9561 6.727 51.4274 6.727C51.8474 6.727 52.2044 6.79467 52.4984 6.93C52.7924 7.06067 53.0561 7.245 53.2894 7.483V3.64H54.7944ZM60.4498 10.878C59.9131 10.8967 59.4604 10.941 59.0918 11.011C58.7231 11.0763 58.4244 11.1627 58.1958 11.27C57.9671 11.3727 57.8014 11.4963 57.6988 11.641C57.6008 11.7857 57.5518 11.9443 57.5518 12.117C57.5518 12.285 57.5774 12.4297 57.6288 12.551C57.6848 12.6677 57.7594 12.7657 57.8528 12.845C57.9508 12.9197 58.0628 12.9757 58.1888 13.013C58.3194 13.0457 58.4618 13.062 58.6158 13.062C59.0078 13.062 59.3438 12.9897 59.6238 12.845C59.9084 12.6957 60.1838 12.481 60.4498 12.201V10.878ZM56.4598 7.854C57.2671 7.10267 58.2284 6.727 59.3438 6.727C59.7544 6.727 60.1184 6.79467 60.4358 6.93C60.7578 7.06067 61.0261 7.24733 61.2408 7.49C61.4601 7.73267 61.6258 8.022 61.7378 8.358C61.8544 8.68933 61.9128 9.058 61.9128 9.464V14H61.2408C61.0961 14 60.9864 13.979 60.9118 13.937C60.8371 13.8903 60.7741 13.7993 60.7228 13.664L60.5758 13.083C60.3938 13.2463 60.2141 13.3933 60.0368 13.524C59.8594 13.65 59.6751 13.7573 59.4838 13.846C59.2971 13.9347 59.0941 14 58.8748 14.042C58.6601 14.0887 58.4221 14.112 58.1608 14.112C57.8714 14.112 57.6008 14.0723 57.3488 13.993C57.1014 13.9137 56.8868 13.7947 56.7048 13.636C56.5228 13.4727 56.3781 13.272 56.2708 13.034C56.1681 12.796 56.1168 12.516 56.1168 12.194C56.1168 11.9187 56.1891 11.6503 56.3338 11.389C56.4831 11.1277 56.7258 10.8943 57.0618 10.689C57.4024 10.479 57.8481 10.3063 58.3988 10.171C58.9541 10.0357 59.6378 9.95867 60.4498 9.94V9.464C60.4498 8.95067 60.3401 8.568 60.1208 8.316C59.9014 8.064 59.5794 7.938 59.1548 7.938C58.8654 7.938 58.6228 7.97533 58.4268 8.05C58.2308 8.12 58.0604 8.197 57.9158 8.281C57.7711 8.365 57.6428 8.44433 57.5308 8.519C57.4188 8.589 57.2998 8.624 57.1738 8.624C57.0711 8.624 56.9824 8.59833 56.9078 8.547C56.8378 8.491 56.7794 8.42333 56.7328 8.344L56.4598 7.854ZM69.7977 6.86L66.9277 14H65.5697L62.6997 6.86H63.9387C64.0554 6.86 64.1511 6.89033 64.2257 6.951C64.3051 7.007 64.3564 7.07467 64.3797 7.154L65.9617 11.312C66.0271 11.508 66.0854 11.7017 66.1367 11.893C66.1881 12.0843 66.2324 12.278 66.2697 12.474C66.3071 12.278 66.3514 12.0867 66.4027 11.9C66.4587 11.7087 66.5194 11.5127 66.5847 11.312L68.1947 7.154C68.2227 7.07 68.2741 7 68.3487 6.944C68.4234 6.888 68.5144 6.86 68.6217 6.86H69.7977ZM72.3942 6.86V14H70.8892V6.86H72.3942ZM72.6462 4.704C72.6462 4.83933 72.6182 4.96767 72.5622 5.089C72.5108 5.21033 72.4385 5.31767 72.3452 5.411C72.2518 5.49967 72.1422 5.572 72.0162 5.628C71.8948 5.67933 71.7642 5.705 71.6242 5.705C71.4888 5.705 71.3605 5.67933 71.2392 5.628C71.1225 5.572 71.0198 5.49967 70.9312 5.411C70.8425 5.31767 70.7702 5.21033 70.7142 5.089C70.6628 4.96767 70.6372 4.83933 70.6372 4.704C70.6372 4.564 70.6628 4.43333 70.7142 4.312C70.7702 4.19067 70.8425 4.08567 70.9312 3.997C71.0198 3.90367 71.1225 3.83133 71.2392 3.78C71.3605 3.724 71.4888 3.696 71.6242 3.696C71.7642 3.696 71.8948 3.724 72.0162 3.78C72.1422 3.83133 72.2518 3.90367 72.3452 3.997C72.4385 4.08567 72.5108 4.19067 72.5622 4.312C72.6182 4.43333 72.6462 4.564 72.6462 4.704ZM78.5482 8.155C78.5108 8.22033 78.4688 8.267 78.4222 8.295C78.3755 8.323 78.3172 8.337 78.2472 8.337C78.1678 8.337 78.0815 8.31367 77.9882 8.267C77.8948 8.21567 77.7852 8.15967 77.6592 8.099C77.5332 8.03833 77.3838 7.98467 77.2112 7.938C77.0432 7.88667 76.8448 7.861 76.6162 7.861C76.4295 7.861 76.2592 7.88433 76.1052 7.931C75.9558 7.973 75.8275 8.036 75.7202 8.12C75.6175 8.19933 75.5382 8.295 75.4822 8.407C75.4262 8.51433 75.3982 8.631 75.3982 8.757C75.3982 8.925 75.4495 9.065 75.5522 9.177C75.6548 9.289 75.7902 9.387 75.9582 9.471C76.1262 9.55033 76.3175 9.62267 76.5322 9.688C76.7468 9.75333 76.9662 9.82333 77.1902 9.898C77.4142 9.97267 77.6335 10.059 77.8482 10.157C78.0628 10.255 78.2542 10.3763 78.4222 10.521C78.5902 10.661 78.7255 10.8337 78.8282 11.039C78.9308 11.2397 78.9822 11.4847 78.9822 11.774C78.9822 12.11 78.9215 12.4203 78.8002 12.705C78.6788 12.9897 78.5015 13.237 78.2682 13.447C78.0348 13.657 77.7432 13.8203 77.3932 13.937C77.0478 14.0537 76.6512 14.112 76.2032 14.112C75.9558 14.112 75.7155 14.0887 75.4822 14.042C75.2535 14 75.0342 13.9417 74.8242 13.867C74.6188 13.7877 74.4252 13.6943 74.2432 13.587C74.0658 13.4797 73.9072 13.363 73.7672 13.237L74.1172 12.663C74.1592 12.593 74.2105 12.5393 74.2712 12.502C74.3365 12.46 74.4158 12.439 74.5092 12.439C74.6072 12.439 74.7028 12.4717 74.7962 12.537C74.8942 12.5977 75.0062 12.6653 75.1322 12.74C75.2628 12.8147 75.4192 12.8847 75.6012 12.95C75.7832 13.0107 76.0095 13.041 76.2802 13.041C76.5042 13.041 76.6978 13.0153 76.8612 12.964C77.0245 12.908 77.1598 12.8333 77.2672 12.74C77.3745 12.6467 77.4538 12.5417 77.5052 12.425C77.5565 12.3037 77.5822 12.1753 77.5822 12.04C77.5822 11.858 77.5308 11.7087 77.4282 11.592C77.3255 11.4753 77.1878 11.375 77.0152 11.291C76.8472 11.207 76.6535 11.1323 76.4342 11.067C76.2195 11.0017 76.0002 10.9317 75.7762 10.857C75.5522 10.7823 75.3305 10.696 75.1112 10.598C74.8965 10.5 74.7028 10.3763 74.5302 10.227C74.3622 10.073 74.2268 9.88867 74.1242 9.674C74.0215 9.45467 73.9702 9.18867 73.9702 8.876C73.9702 8.59133 74.0262 8.32067 74.1382 8.064C74.2548 7.80733 74.4228 7.581 74.6422 7.385C74.8662 7.189 75.1392 7.035 75.4612 6.923C75.7878 6.80633 76.1635 6.748 76.5882 6.748C77.0688 6.748 77.5052 6.825 77.8972 6.979C78.2892 7.133 78.6182 7.343 78.8842 7.609L78.5482 8.155ZM81.9645 6.86V14H80.4595V6.86H81.9645ZM82.2165 4.704C82.2165 4.83933 82.1885 4.96767 82.1325 5.089C82.0812 5.21033 82.0088 5.31767 81.9155 5.411C81.8222 5.49967 81.7125 5.572 81.5865 5.628C81.4652 5.67933 81.3345 5.705 81.1945 5.705C81.0592 5.705 80.9308 5.67933 80.8095 5.628C80.6928 5.572 80.5902 5.49967 80.5015 5.411C80.4128 5.31767 80.3405 5.21033 80.2845 5.089C80.2332 4.96767 80.2075 4.83933 80.2075 4.704C80.2075 4.564 80.2332 4.43333 80.2845 4.312C80.3405 4.19067 80.4128 4.08567 80.5015 3.997C80.5902 3.90367 80.6928 3.83133 80.8095 3.78C80.9308 3.724 81.0592 3.696 81.1945 3.696C81.3345 3.696 81.4652 3.724 81.5865 3.78C81.7125 3.83133 81.8222 3.90367 81.9155 3.997C82.0088 4.08567 82.0812 4.19067 82.1325 4.312C82.1885 4.43333 82.2165 4.564 82.2165 4.704ZM86.9425 6.748C87.4698 6.748 87.9458 6.83433 88.3705 7.007C88.7998 7.17967 89.1638 7.42467 89.4625 7.742C89.7658 8.05933 89.9991 8.44433 90.1625 8.897C90.3258 9.34967 90.4075 9.85833 90.4075 10.423C90.4075 10.9877 90.3258 11.4963 90.1625 11.949C89.9991 12.4017 89.7658 12.789 89.4625 13.111C89.1638 13.4283 88.7998 13.6733 88.3705 13.846C87.9458 14.0187 87.4698 14.105 86.9425 14.105C86.4105 14.105 85.9298 14.0187 85.5005 13.846C85.0758 13.6733 84.7118 13.4283 84.4085 13.111C84.1051 12.789 83.8718 12.4017 83.7085 11.949C83.5451 11.4963 83.4635 10.9877 83.4635 10.423C83.4635 9.85833 83.5451 9.34967 83.7085 8.897C83.8718 8.44433 84.1051 8.05933 84.4085 7.742C84.7118 7.42467 85.0758 7.17967 85.5005 7.007C85.9298 6.83433 86.4105 6.748 86.9425 6.748ZM86.9425 12.929C87.5865 12.929 88.0648 12.7143 88.3775 12.285C88.6948 11.851 88.8535 11.2327 88.8535 10.43C88.8535 9.62733 88.6948 9.009 88.3775 8.575C88.0648 8.13633 87.5865 7.917 86.9425 7.917C86.2891 7.917 85.8038 8.13633 85.4865 8.575C85.1691 9.009 85.0105 9.62733 85.0105 10.43C85.0105 11.2327 85.1691 11.851 85.4865 12.285C85.8038 12.7143 86.2891 12.929 86.9425 12.929ZM93.2605 7.805C93.4145 7.64633 93.5732 7.504 93.7365 7.378C93.9045 7.24733 94.0819 7.13533 94.2685 7.042C94.4552 6.94867 94.6535 6.87633 94.8635 6.825C95.0735 6.77367 95.3022 6.748 95.5495 6.748C95.9415 6.748 96.2845 6.81333 96.5785 6.944C96.8772 7.07467 97.1269 7.259 97.3275 7.497C97.5329 7.735 97.6869 8.022 97.7895 8.358C97.8922 8.68933 97.9435 9.05567 97.9435 9.457V14H96.4455V9.457C96.4455 8.97633 96.3335 8.603 96.1095 8.337C95.8902 8.071 95.5542 7.938 95.1015 7.938C94.7655 7.938 94.4529 8.015 94.1635 8.169C93.8789 8.323 93.6105 8.533 93.3585 8.799V14H91.8535V6.86H92.7635C92.9689 6.86 93.0995 6.95567 93.1555 7.147L93.2605 7.805Z" fill="white"/>
<defs>
<linearGradient id="paint0_linear_214_110" x1="0" y1="1.19556" x2="25.0596" y2="5.82546" gradientUnits="userSpaceOnUse">
<stop stop-color="#E12223"/>
<stop offset="1" stop-color="#FB5F60"/>
</linearGradient>
</defs>
</svg>
