<svg width="227" height="40" viewBox="0 0 227 40" fill="none" xmlns="http://www.w3.org/2000/svg">
<g style="mix-blend-mode:luminosity">
<path d="M8.57118 3.3335C8.57118 1.4915 7.03756 0 5.14291 0C3.25032 0 1.71465 1.4915 1.71465 3.3335C1.71465 4.7315 2.6018 5.925 3.85718 6.4195V16.667H6.42864V6.4195C7.68403 5.9255 8.57118 4.7325 8.57118 3.3335Z" fill="#434343"/>
<path d="M39.4292 3.3335C39.4292 1.4915 37.8956 0 36.0004 0C34.1083 0 32.5716 1.4915 32.5716 3.3335C32.5716 4.7315 33.4593 5.925 34.7147 6.4195V16.667H37.2861V6.4205C38.5415 5.9255 39.4292 4.7325 39.4292 3.3335Z" fill="#434343"/>
<path d="M30.8575 18.3335C24.5091 20.4725 17.1496 20.6385 10.2858 18.3335C8.69564 20.8925 7.71437 24.4275 7.71437 28.334C7.71437 30.175 13.4683 31.667 20.5717 31.667C27.672 31.667 33.4289 30.175 33.4289 28.334C33.4289 24.4275 32.4482 20.8925 30.8575 18.3335ZM14.143 28.334C12.9586 28.334 12.0005 27.4025 12.0005 26.25C12.0005 25.0995 12.9586 24.167 14.143 24.167C15.3274 24.167 16.2855 25.0995 16.2855 26.25C16.2855 27.4025 15.3274 28.334 14.143 28.334ZM27.0003 28.334C25.8148 28.334 24.8572 27.4025 24.8572 26.25C24.8572 25.0995 25.8148 24.167 27.0003 24.167C28.1857 24.167 29.1433 25.0995 29.1433 26.25C29.1433 27.4025 28.1857 28.334 27.0003 28.334Z" fill="#434343"/>
<path d="M20.5717 6.667C9.21096 6.667 0 16.365 0 28.334C0 34.7795 9.21096 40 20.5717 40C31.9359 40 41.1433 34.7795 41.1433 28.334C41.1433 16.365 31.9359 6.667 20.5717 6.667ZM20.5717 36.667C10.4689 36.667 3.42827 32.2755 3.42827 28.334C3.42827 18.2245 11.1185 10 20.5717 10C30.0238 10 37.7145 18.2245 37.7145 28.334C37.7145 32.2755 30.6754 36.667 20.5717 36.667Z" fill="#434343"/>
<path d="M62.6714 8.67193H71.7662C74.2564 8.67193 76.2486 9.31403 77.7428 10.5982C79.2586 11.8825 80.0165 13.6403 80.0165 15.8719C80.0165 18.1877 79.2694 19.9561 77.7753 21.1772C76.2811 22.3772 74.2673 22.9772 71.7337 22.9772H66.7965V30.7456H62.6714V8.67193ZM71.2465 19.6614C74.3431 19.6614 75.8913 18.3982 75.8913 15.8719C75.8913 13.2825 74.3431 11.9877 71.2465 11.9877H66.7965V19.6614H71.2465Z" fill="#434343"/>
<path d="M80.9993 15.5877H84.9621V18.0193C85.5901 17.1982 86.4779 16.5877 87.6256 16.1877C88.7949 15.7877 90.1266 15.5877 91.6208 15.5877V18.6193C90.04 18.6193 88.665 18.8614 87.4956 19.3456C86.348 19.8088 85.5467 20.5456 85.092 21.5561V30.7456H80.9993V15.5877Z" fill="#434343"/>
<path d="M100.389 31.2193C97.4876 31.2193 95.1923 30.514 93.5032 29.1035C91.8142 27.693 90.9696 25.7246 90.9696 23.1982C90.9696 20.714 91.7167 18.7456 93.2109 17.293C94.705 15.8403 96.838 15.114 99.6097 15.114C101.429 15.114 102.977 15.4509 104.255 16.1246C105.554 16.7982 106.528 17.7246 107.178 18.9035C107.828 20.0614 108.152 21.3877 108.152 22.8825V24.714H94.8674C95.1489 26.9667 97.1628 28.093 100.909 28.093C101.905 28.093 102.923 28.0088 103.962 27.8403C105.002 27.6719 105.911 27.4403 106.691 27.1456V30.2088C105.954 30.5035 105.002 30.7456 103.832 30.9351C102.685 31.1246 101.537 31.2193 100.389 31.2193ZM104.287 21.9982C104.244 20.7982 103.8 19.8719 102.955 19.2193C102.132 18.5667 100.996 18.2403 99.5448 18.2403C98.1156 18.2403 96.9896 18.5772 96.1667 19.2509C95.3438 19.9246 94.9107 20.8403 94.8674 21.9982H104.287Z" fill="#434343"/>
<path d="M116.058 31.2193C114.347 31.2193 113.048 30.7561 112.16 29.8298C111.272 28.9035 110.828 27.5982 110.828 25.914V18.6193H108.489V15.5877H110.828V11.0403H114.921V15.5877H118.656V18.6193H114.921V25.4088C114.921 26.3772 115.105 27.0719 115.473 27.493C115.841 27.893 116.512 28.093 117.487 28.093C118.158 28.093 118.819 27.9456 119.468 27.6509V30.6825C118.537 31.0403 117.4 31.2193 116.058 31.2193Z" fill="#434343"/>
<path d="M126.705 31.2193C124.605 31.2193 123.035 30.6719 121.996 29.5772C120.956 28.4614 120.437 26.9877 120.437 25.1561V15.5877H124.529V24.7772C124.529 26.9877 125.59 28.093 127.712 28.093C128.644 28.093 129.521 27.8825 130.343 27.4614C131.166 27.0193 131.859 26.3667 132.422 25.5035V15.5877H136.515V30.7456H132.552V28.693C131.816 29.5561 130.939 30.1982 129.921 30.6193C128.903 31.0193 127.831 31.2193 126.705 31.2193Z" fill="#434343"/>
<path d="M138.8 15.5877H142.763V17.6403C143.499 16.7772 144.376 16.1456 145.394 15.7456C146.412 15.3246 147.483 15.114 148.609 15.114C150.71 15.114 152.28 15.6719 153.319 16.7877C154.359 17.8825 154.878 19.3456 154.878 21.1772V30.7456H150.786V21.5561C150.786 19.3456 149.725 18.2403 147.603 18.2403C146.671 18.2403 145.794 18.4614 144.971 18.9035C144.149 19.3246 143.456 19.9667 142.893 20.8298V30.7456H138.8V15.5877Z" fill="#434343"/>
<path d="M165.771 31.2193C162.869 31.2193 160.574 30.514 158.885 29.1035C157.196 27.693 156.351 25.7246 156.351 23.1982C156.351 20.714 157.099 18.7456 158.593 17.293C160.087 15.8403 162.22 15.114 164.992 15.114C166.811 15.114 168.359 15.4509 169.636 16.1246C170.936 16.7982 171.91 17.7246 172.56 18.9035C173.209 20.0614 173.534 21.3877 173.534 22.8825V24.714H160.249C160.531 26.9667 162.545 28.093 166.291 28.093C167.287 28.093 168.305 28.0088 169.344 27.8403C170.383 27.6719 171.293 27.4403 172.073 27.1456V30.2088C171.336 30.5035 170.383 30.7456 169.214 30.9351C168.066 31.1246 166.919 31.2193 165.771 31.2193ZM169.669 21.9982C169.626 20.7982 169.182 19.8719 168.337 19.2193C167.514 18.5667 166.377 18.2403 164.927 18.2403C163.497 18.2403 162.371 18.5772 161.549 19.2509C160.726 19.9246 160.293 20.8403 160.249 21.9982H169.669Z" fill="#434343"/>
<path d="M182.739 31.2193C181.158 31.2193 179.74 30.893 178.484 30.2403C177.249 29.5667 176.275 28.6298 175.56 27.4298C174.867 26.2088 174.521 24.7982 174.521 23.1982C174.521 21.6193 174.867 20.2193 175.56 18.9982C176.275 17.7772 177.249 16.8298 178.484 16.1561C179.74 15.4614 181.158 15.114 182.739 15.114C185.294 15.114 187.308 15.7667 188.78 17.0719V7.40877H192.873V30.7456H188.91V28.9772C188.022 29.7772 187.102 30.3561 186.149 30.714C185.196 31.0509 184.06 31.2193 182.739 31.2193ZM183.746 28.093C184.915 28.093 185.954 27.7877 186.864 27.1772C187.773 26.5667 188.412 25.7456 188.78 24.714V21.6509C188.434 20.6193 187.795 19.7982 186.864 19.1877C185.954 18.5561 184.915 18.2403 183.746 18.2403C182.273 18.2403 181.06 18.7035 180.108 19.6298C179.155 20.5561 178.678 21.7456 178.678 23.1982C178.678 24.6509 179.155 25.8298 180.108 26.7351C181.06 27.6404 182.273 28.093 183.746 28.093Z" fill="#434343"/>
<path d="M196.155 30.7456C195.7 30.7456 195.31 30.5982 194.985 30.3035C194.661 29.9877 194.498 29.6088 194.498 29.1667C194.498 28.7035 194.661 28.314 194.985 27.9982C195.31 27.6825 195.7 27.5246 196.155 27.5246C196.61 27.5246 196.999 27.6825 197.324 27.9982C197.649 28.314 197.811 28.7035 197.811 29.1667C197.811 29.6088 197.649 29.9877 197.324 30.3035C196.999 30.5982 196.61 30.7456 196.155 30.7456Z" fill="#434343"/>
<path d="M207.869 8.67193H211.864L220.927 30.7456H216.736L214.658 25.6614H205.043L202.997 30.7456H198.774L207.869 8.67193ZM213.521 22.3456L209.85 12.9667L206.18 22.3456H213.521Z" fill="#434343"/>
<path d="M222.542 8.67193H226.667V30.7456H222.542V8.67193Z" fill="#434343"/>
</g>
</svg>
