<svg width="28" height="17" viewBox="0 0 28 17" fill="none" xmlns="http://www.w3.org/2000/svg">
<path fill-rule="evenodd" clip-rule="evenodd" d="M14.6634 2.496L22.1371 10.7002L27.0281 10.6954L27.0318 14.4676L20.4721 14.474L12.997 6.2682H7.3165C6.65335 7.47537 5.36967 8.29564 3.89782 8.29564C1.74861 8.29564 0 6.54709 0 4.39782C0 2.24854 1.74854 0.499937 3.89782 0.5C5.35672 0.5 6.63021 1.30612 7.29834 2.496H14.6634ZM2.51487 4.39782C2.51487 5.16049 3.13527 5.78083 3.89788 5.78083C4.66043 5.78083 5.2809 5.16043 5.2809 4.39782C5.2809 3.63527 4.6605 3.0148 3.89788 3.0148C3.13527 3.0148 2.51487 3.63527 2.51487 4.39782ZM20.0423 3.36068L18.6517 5.02045L21.2155 7.83451L21.804 7.13288H27.0322V3.36068H20.0423ZM13.8812 10.7161H11.6434C10.9777 9.51759 9.69922 8.70443 8.23385 8.70443C6.08457 8.70443 4.33603 10.453 4.33603 12.6022C4.33603 14.7515 6.08463 16.5001 8.23385 16.5001C9.69929 16.5001 10.9778 15.6868 11.6434 14.4883H15.6423L17.1416 12.6981L14.5781 9.88406L13.8812 10.7161ZM8.23378 13.9853C7.47117 13.9853 6.85077 13.3648 6.85077 12.6022C6.85077 11.8396 7.47117 11.2192 8.23378 11.2192C8.9964 11.2192 9.6168 11.8396 9.6168 12.6022C9.6168 13.3648 8.9964 13.9853 8.23378 13.9853Z" fill="url(#paint0_linear_581_454)"/>
<defs>
<linearGradient id="paint0_linear_581_454" x1="0" y1="0.5" x2="28.1721" y2="5.85281" gradientUnits="userSpaceOnUse">
<stop stop-color="#E12223"/>
<stop offset="1" stop-color="#FB5F60"/>
</linearGradient>
</defs>
</svg>
